<?xml version="1.0" encoding="UTF-8"?>
<svg version="1.1" xmlns="http://www.w3.org/2000/svg" width="840" height="779">
<path d="M0 0 C0.98718571 -0.00301597 1.97437143 -0.00603194 2.99147186 -0.0091393 C4.6102759 -0.00648509 4.6102759 -0.00648509 6.26178306 -0.00377727 C7.41711635 -0.0058299 8.57244964 -0.00788253 9.76279303 -0.00999737 C12.97980405 -0.01468895 16.19677977 -0.01489163 19.41379264 -0.01321978 C22.90994825 -0.012489 26.40609634 -0.01751088 29.90224874 -0.0217948 C36.84105268 -0.02937797 43.77984893 -0.03156802 50.71865658 -0.03212385 C59.02818109 -0.03303718 67.33769847 -0.03970382 75.64721992 -0.04647068 C95.73234626 -0.06253643 115.81747185 -0.06843464 135.90260346 -0.07321942 C145.40322955 -0.07555483 154.90385503 -0.07915742 164.40448065 -0.0829148 C196.92256501 -0.0957509 229.44064904 -0.10646997 261.95873588 -0.1099174 C264.00033602 -0.11013904 266.04193616 -0.11036082 268.08353629 -0.11058275 C270.13008525 -0.11080339 272.1766342 -0.11102388 274.22318316 -0.1112442 C278.32895515 -0.11168676 282.43472715 -0.11213387 286.54049915 -0.11258388 C287.55849317 -0.11269327 288.57648719 -0.11280266 289.62532951 -0.11291536 C322.63478288 -0.1165461 355.64421428 -0.13246647 388.65365924 -0.15577424 C423.548501 -0.18036825 458.44333021 -0.19409005 493.3381809 -0.19528532 C497.16853879 -0.19545678 500.99889668 -0.1956722 504.82925457 -0.19591975 C506.24397987 -0.19600341 506.24397987 -0.19600341 507.68728548 -0.19608875 C522.867896 -0.19723958 538.04848399 -0.20826435 553.2290869 -0.22280681 C568.48703807 -0.23717064 583.74496034 -0.24040944 599.0029164 -0.23236683 C608.06755838 -0.22791001 617.13210713 -0.23177328 626.19673686 -0.24760534 C632.25411039 -0.25735622 638.31141861 -0.25617604 644.36879154 -0.24616911 C647.81860892 -0.24077786 651.26824729 -0.24006431 654.71804983 -0.25267783 C658.4402375 -0.26374626 662.16195344 -0.25629787 665.88412803 -0.2442863 C666.94694257 -0.25188149 668.0097571 -0.25947669 669.10477814 -0.26730204 C685.8775661 -0.1504746 700.43176884 6.21848691 712.27902454 18.0339005 C724.12765651 30.79142334 727.17289868 46.66687242 727.14482731 63.49160409 C727.14790626 65.20690628 727.14790626 65.20690628 727.15104741 66.95686105 C727.15572799 70.13147192 727.15594465 73.30604688 727.15426982 76.48065961 C727.15353745 79.93435884 727.15856463 83.38805052 727.16284484 86.84174651 C727.17041872 93.69197687 727.17261759 100.54219944 727.17317389 107.39243355 C727.17408813 115.59765355 727.18075746 123.80286635 727.18752072 132.00808325 C727.20357672 151.83921367 727.20948349 171.67034332 727.21426946 191.50147908 C727.21660576 200.88364655 727.22020844 210.26581342 727.22396484 219.64798042 C727.23679983 251.76679084 727.24751919 283.88560092 727.25096744 316.00441384 C727.25118908 318.02044402 727.25141086 320.03647421 727.25163279 322.05250439 C727.25185343 324.07339 727.25207392 326.09427562 727.25229424 328.11516124 C727.25273679 332.16937316 727.25318391 336.22358507 727.25363392 340.27779698 C727.25374331 341.28300497 727.2538527 342.28821296 727.2539654 343.32388179 C727.25759606 375.91797515 727.27351669 408.51204627 727.29682428 441.10613112 C727.32142388 475.5700417 727.33514034 510.03393957 727.33633536 544.49785918 C727.33650681 548.28160084 727.33672224 552.06534249 727.33696979 555.84908414 C727.33702556 556.78074129 727.33708133 557.71239844 727.33713879 558.67228762 C727.3382891 573.66084775 727.34930939 588.64938504 727.36385685 603.63793746 C727.3782278 618.70524395 727.38145544 633.7725212 727.37341687 648.83983267 C727.3689635 657.78853201 727.37280955 666.73713687 727.38865538 675.68582378 C727.39841815 681.668395 727.39721475 687.65090016 727.38721915 693.6334708 C727.38183642 697.03893076 727.38275599 700.44406232 727.39372787 703.84953059 C727.46069851 726.04311359 726.76899289 746.04478342 710.39230579 762.947963 C697.50568971 774.75540434 683.47512313 779.45110041 666.27841133 779.3849194 C664.53938712 779.39017852 664.53938712 779.39017852 662.7652311 779.39554387 C659.55555316 779.40322879 656.34602296 779.40201463 653.13634439 779.39698833 C649.64118906 779.39371254 646.14605764 779.40201185 642.65091002 779.40880668 C636.52778521 779.41910196 630.40469202 779.42195129 624.28155941 779.41989446 C615.17597184 779.41684326 606.07041922 779.4251711 596.96483845 779.43564371 C579.75523968 779.45498404 562.54565283 779.46061194 545.33604447 779.46175782 C532.04547191 779.46267698 518.75490403 779.466794 505.464333 779.47315907 C501.6383818 779.47495417 497.8124306 779.4767338 493.9864794 779.47850883 C492.55975571 779.47917197 492.55975571 779.47917197 491.10420932 779.47984852 C464.35052733 779.4921567 437.59684695 779.50004967 410.843162 779.49916196 C409.33019247 779.49911522 409.33019247 779.49911522 407.78665789 779.49906754 C402.67444365 779.49890133 397.56222941 779.49870325 392.45001516 779.49849813 C391.43471519 779.49845824 390.41941522 779.49841835 389.37334859 779.49837725 C387.32016454 779.49829637 385.26698049 779.49821278 383.21379644 779.49812646 C351.27059581 779.49690099 319.32743764 779.51191351 287.38424915 779.53927159 C251.49419941 779.56999735 215.60417756 779.58720379 179.71411383 779.58534515 C175.88659086 779.58519589 172.05906789 779.58509847 168.23154491 779.58503652 C167.28911556 779.58501321 166.34668621 779.5849899 165.37569839 779.58496588 C150.21429345 779.58490436 135.0529254 779.59767217 119.89153143 779.61490105 C104.6519486 779.63186051 89.41241969 779.6338289 74.17283265 779.6206824 C65.12189617 779.61329537 56.07112358 779.61694382 47.02020449 779.63656708 C40.96955317 779.64857588 34.91902041 779.64596603 28.8683745 779.63162609 C25.42407005 779.62387064 21.98008248 779.62228896 18.53580049 779.63854079 C-2.932156 779.72018208 -20.40493783 778.44089827 -36.79910046 762.9401505 C-53.699056 745.01743108 -53.57796391 724.78636536 -53.49453503 701.53377843 C-53.49693229 698.73062105 -53.50534118 695.9274886 -53.51344401 693.12434268 C-53.52782623 687.04877984 -53.52749254 680.97335942 -53.51725537 674.89779019 C-53.50207357 665.86296113 -53.50988718 656.82825137 -53.52208859 647.79342301 C-53.54311501 631.65366964 -53.54134059 615.51397974 -53.52977294 599.37422039 C-53.51969978 585.24982291 -53.51708901 571.12544866 -53.52186352 557.00104833 C-53.52216906 556.06314069 -53.5224746 555.12523306 -53.5227894 554.15890398 C-53.52403481 550.35136763 -53.52530842 546.54383129 -53.52662846 542.73629497 C-53.53885689 507.03875821 -53.52778262 471.34126181 -53.50624087 435.64373129 C-53.48725929 403.94775696 -53.48895783 372.25184692 -53.50808483 340.55587316 C-53.52951615 304.92247795 -53.53798956 269.28911837 -53.52563578 233.65571761 C-53.52435296 229.85522931 -53.5231016 226.05474099 -53.52186352 222.25425267 C-53.52154721 221.31851627 -53.5212309 220.38277987 -53.52090501 219.41868782 C-53.5163604 205.30522169 -53.52166637 191.19178138 -53.53178173 177.07831883 C-53.54322937 161.02624283 -53.54033686 144.97424005 -53.51865876 128.92217314 C-53.50693415 119.94494639 -53.50611707 110.96787833 -53.52124345 101.99065577 C-53.53024175 95.98682143 -53.52457912 89.98311376 -53.50722438 83.97929812 C-53.49775066 80.56343387 -53.49659229 77.14814039 -53.50884831 73.73224705 C-53.58101873 51.94153431 -52.78921225 32.74083624 -36.67410046 16.2526505 C-26.74183133 6.83528754 -13.96690563 0.00847806 0 0 Z M68.18527454 133.16280675 C57.88953328 147.21760462 52.26139206 164.77168937 54.45089954 182.2214005 C56.43457395 195.06332349 60.98338433 205.90456391 69.01339954 216.1276505 C69.87191517 217.26847081 69.87191517 217.26847081 70.74777454 218.432338 C80.99945966 231.09360723 97.93171198 239.37328458 114.01339954 241.1276505 C134.28918455 242.59843283 151.401671 235.90290148 166.64230579 222.88155675 C178.36504743 211.98209162 186.53209145 196.16064484 187.25168079 180.010463 C187.71496141 160.30337815 182.59830365 143.89988675 169.51730579 128.69405675 C156.62685287 115.48184525 139.64633534 108.01183425 121.20089954 107.6901505 C100.21775555 107.85200674 81.85895288 117.42837901 68.18527454 133.16280675 Z M375.43039173 325.54513097 C371.52458217 329.90720153 368.33231629 334.724598 365.52121204 339.8464005 C364.01339954 342.1276505 364.01339954 342.1276505 361.01339954 343.1276505 C361.01339954 326.6276505 361.01339954 310.1276505 361.01339954 293.1276505 C324.71339954 293.1276505 288.41339954 293.1276505 251.01339954 293.1276505 C251.01339954 415.2276505 251.01339954 537.3276505 251.01339954 663.1276505 C288.96339954 663.1276505 326.91339954 663.1276505 366.01339954 663.1276505 C366.05078235 648.65663487 366.08816517 634.18561925 366.12668079 619.276088 C366.15697552 610.07946403 366.1880134 600.88285239 366.22238392 591.68624425 C366.27673762 577.10601506 366.32815607 562.52582005 366.35983509 547.94552159 C366.38292735 537.3237335 366.41644902 526.70203618 366.4621011 516.08032024 C366.48588297 510.46476017 366.50470965 504.84928915 366.51101345 499.23368001 C366.51713314 493.92965392 366.53737582 488.62585525 366.56767505 483.32191396 C366.5763465 481.39287714 366.58020102 479.46381046 366.5784077 477.53475499 C366.56176188 451.32662792 368.60063656 421.21080668 387.73605579 401.31124425 C401.57744682 388.03965319 419.50823046 384.59672519 438.15890735 384.70601964 C450.59440537 385.04893517 461.78311606 387.73911243 472.01339954 395.1276505 C472.90027454 395.7051505 473.78714954 396.2826505 474.70089954 396.8776505 C491.01549634 412.75131225 494.70933055 437.77793038 495.11864132 459.53779912 C495.18803203 464.88625641 495.20277225 470.23487318 495.21872181 475.58370519 C495.22831622 477.63471217 495.23832718 479.68571724 495.24872059 481.73672032 C495.27560645 487.27301091 495.2967037 492.80930988 495.31672257 498.34562898 C495.33868355 504.14320368 495.36602248 509.94075304 495.39277881 515.73830724 C495.44256962 526.70267716 495.48755861 537.66706127 495.53080118 548.63145876 C495.5895537 563.45763734 495.65576694 578.2837825 495.72155136 593.10993123 C495.82491296 616.44914843 495.91834365 639.78839457 496.01339954 663.1276505 C533.63339954 663.1276505 571.25339954 663.1276505 610.01339954 663.1276505 C610.10091047 621.6882059 610.10091047 621.6882059 610.15988392 580.24874425 C610.16575578 574.63529997 610.17181673 569.02185595 610.17819446 563.40841222 C610.17898571 562.70504959 610.17977696 562.00168697 610.18059218 561.27701032 C610.19357009 549.98466448 610.21718201 538.69236539 610.24485793 527.40004709 C610.27310909 515.77434723 610.28961696 504.1486715 610.29566503 492.52293873 C610.29954633 486.00842131 610.30854627 479.49400918 610.33058971 472.9795258 C610.79691038 388.26565139 610.79691038 388.26565139 570.95089954 315.97530675 C546.7315518 291.95941455 512.17801087 283.99346896 479.01339954 283.1276505 C478.03242298 283.08768956 477.05144642 283.04772862 476.04074329 283.00655675 C437.12830992 282.0966374 401.93915306 297.38481176 375.43039173 325.54513097 Z M64.01339954 293.1276505 C64.01339954 415.2276505 64.01339954 537.3276505 64.01339954 663.1276505 C101.63339954 663.1276505 139.25339954 663.1276505 178.01339954 663.1276505 C178.01339954 541.0276505 178.01339954 418.9276505 178.01339954 293.1276505 C140.39339954 293.1276505 102.77339954 293.1276505 64.01339954 293.1276505 Z " transform="translate(52.98660045862198,-0.12765049934387207)"/>
<path d="M0 0 C5.68635792 2.60443874 9.1592952 6.40518993 11.859375 12.0625 C13.32571491 18.99428864 13.46609586 25.21508829 9.8828125 31.4921875 C6.57654449 35.99721935 2.06544341 40.029112 -3.453125 41.3125 C-11.50579875 42.06958898 -17.01486276 40.75895583 -23.703125 36 C-27.45088786 32.33741357 -29.22018179 29.14036968 -29.88671875 23.91015625 C-29.90008612 11.81268875 -29.90008612 11.81268875 -25.453125 6.3125 C-18.18407354 -0.91767952 -10.01471435 -2.80667154 0 0 Z M-21.890625 8.8125 C-25.44458495 13.22831945 -25.79879588 17.21809677 -25.734375 22.7421875 C-25.16639415 27.93290135 -22.70591132 31.15138097 -18.890625 34.6875 C-14.04688616 37.91665922 -9.09887718 37.93882563 -3.453125 37.3125 C1.64068276 34.81365091 6.12412592 30.70520933 8.359375 25.375 C8.4521875 24.3540625 8.4521875 24.3540625 8.546875 23.3125 C8.65 22.24 8.753125 21.1675 8.859375 20.0625 C8.41261718 14.70140619 6.79578947 10.61834902 3.00390625 6.73046875 C-5.13152292 0.27052843 -14.97455542 1.02160539 -21.890625 8.8125 Z " fill="#FFFFFF" transform="translate(827.453125,627.6875)"/>
<path d="M0 0 C11 0 11 0 16 2 C17.89488952 3.89488952 17.18019112 6.57139146 17.23046875 9.08984375 C17 11 17 11 15 13 C14.01 13 13.02 13 12 13 C13.98 16.3 15.96 19.6 18 23 C13 23 13 23 11.41796875 21.5390625 C10.80888672 20.59160156 10.80888672 20.59160156 10.1875 19.625 C9.55908203 18.68527344 9.55908203 18.68527344 8.91796875 17.7265625 C8 16 8 16 8 14 C6.68 14 5.36 14 4 14 C4 16.97 4 19.94 4 23 C2.68 23 1.36 23 0 23 C0 15.41 0 7.82 0 0 Z M4 4 C4 5.98 4 7.96 4 10 C6.64 10 9.28 10 12 10 C12.33 8.35 12.66 6.7 13 5 C10.04335481 3.5216774 7.25770263 3.93967217 4 4 Z " fill="#FFFFFF" transform="translate(811,636)"/>
</svg>
